<svg width="19" height="21" viewBox="0 0 19 21" fill="none" xmlns="http://www.w3.org/2000/svg">
<path d="M4.36123 20.1C4.36123 19.8833 4.31956 19.775 4.23623 19.775L3.66123 20.05C3.66123 19.9333 3.59456 19.85 3.46123 19.8L3.26123 19.775C3.1279 19.775 2.96123 19.8333 2.76123 19.95C2.7279 19.8667 2.68623 19.7833 2.63623 19.7C2.58623 19.6167 2.54456 19.5417 2.51123 19.475C2.29456 19.0583 2.0779 18.6 1.86123 18.1C1.66123 17.5833 1.46956 17.0917 1.28623 16.625C1.11956 16.1583 0.986231 15.7917 0.88623 15.525C0.819564 15.3083 0.744564 14.9833 0.661231 14.55C0.577897 14.1167 0.494564 13.5667 0.411231 12.9C0.594564 13.0167 0.736231 13.075 0.836231 13.075C0.952897 13.075 1.06123 12.9 1.16123 12.55C1.21123 12.6167 1.3029 12.65 1.43623 12.65C1.53623 12.65 1.61123 12.6167 1.66123 12.55L2.06123 11.95L2.51123 12.1H2.53623C2.56956 12.1 2.6029 12.0833 2.63623 12.05C2.66956 12.0167 2.71956 11.9833 2.78623 11.95C2.91956 11.8667 3.01956 11.825 3.08623 11.825L3.16123 11.85C3.5779 12.05 3.84456 12.4167 3.96123 12.95C4.26123 14.2167 4.56123 14.85 4.86123 14.85C5.16123 14.85 5.51123 14.5333 5.91123 13.9C6.11123 13.5833 6.31123 13.2167 6.51123 12.8C6.7279 12.3833 6.94456 11.9167 7.16123 11.4C7.19456 11.6 7.2279 11.7 7.26123 11.7C7.34456 11.7 7.48623 11.4917 7.68623 11.075C7.9029 10.6583 8.24456 10.0833 8.71123 9.35C8.9779 8.9 9.31123 8.39167 9.71123 7.825C10.1279 7.25833 10.5696 6.675 11.0362 6.075C11.5029 5.475 11.9529 4.90833 12.3862 4.375C12.8362 3.84167 13.2362 3.38333 13.5862 3C13.9362 2.61667 14.1946 2.36667 14.3612 2.25C14.9946 1.81667 15.4946 1.4 15.8612 0.999999C15.8446 1.11667 15.8196 1.225 15.7862 1.325C15.7696 1.40833 15.7612 1.46667 15.7612 1.5C15.7612 1.56667 15.7946 1.6 15.8612 1.6L16.5612 1.25V1.35C16.5612 1.48333 16.5946 1.55 16.6612 1.55C16.7112 1.55 16.8112 1.475 16.9612 1.325C17.1112 1.175 17.1946 1.06667 17.2112 0.999999L17.1612 1.35L18.0112 0.85L17.8112 1.3C18.0779 1.11667 18.2696 1.025 18.3862 1.025C18.4529 1.025 18.5029 1.06667 18.5362 1.15C18.5696 1.21667 18.5862 1.28333 18.5862 1.35C18.5862 1.45 18.5446 1.56667 18.4612 1.7C18.3779 1.83333 18.2696 1.99167 18.1362 2.175C18.0362 2.30833 17.8696 2.50833 17.6362 2.775C17.4196 3.025 17.0862 3.4 16.6362 3.9C16.1862 4.38333 15.5862 5.05833 14.8362 5.925C14.6362 6.14167 14.3279 6.525 13.9112 7.075C13.4946 7.60833 13.0196 8.23333 12.4862 8.95C11.9696 9.65 11.4529 10.3583 10.9362 11.075C10.4196 11.7917 9.96123 12.4417 9.56123 13.025C9.16123 13.5917 8.8779 14.0167 8.71123 14.3L7.16123 16.925C6.8279 17.4917 6.5529 17.9583 6.33623 18.325C6.11956 18.675 5.9529 18.9167 5.83623 19.05C5.58623 19.35 5.31123 19.6167 5.01123 19.85L4.78623 19.725L4.58623 19.85L4.36123 20.1Z" fill="#919191"/>
</svg>
