<?xml version="1.0" encoding="UTF-8"?>
<!DOCTYPE svg PUBLIC "-//W3C//DTD SVG 1.1//EN" "http://www.w3.org/Graphics/SVG/1.1/DTD/svg11.dtd">
<!-- Creator: CorelDRAW -->
<svg xmlns="http://www.w3.org/2000/svg" xml:space="preserve" width="2048px" height="2048px" style="shape-rendering:geometricPrecision; text-rendering:geometricPrecision; image-rendering:optimizeQuality; fill-rule:evenodd; clip-rule:evenodd"
viewBox="0 0 2048 2048"
 xmlns:xlink="http://www.w3.org/1999/xlink">
 <defs>
  <style type="text/css">
   <![CDATA[
    .fil2 {fill:none}
    .fil1 {fill:#212121;fill-rule:nonzero}
    .fil0 {fill:#66BB6A;fill-rule:nonzero}
   ]]>
  </style>
 </defs>
 <g id="Layer_x0020_1">
  <metadata id="CorelCorpID_0Corel-Layer"/>
  <path class="fil0" d="M914.026 1190.48l26.6764 0c6.46772,0 12.3378,2.55945 16.6536,6.72048 10.7776,8.64922 22.0264,15.5528 33.5894,20.2205 10.6913,4.31575 21.75,6.68504 33.0544,6.68504 11.3043,0 22.363,-2.36929 33.0544,-6.68504 12.0886,-4.87914 23.8323,-12.2032 35.0551,-21.4099l15.1878 18.4689 -15.2221 -18.5551c4.46811,-3.66496 9.86221,-5.44725 15.2221,-5.44489l0.056693 0 26.6209 0c60.939,0 116.323,24.9142 156.458,65.0493 40.1363,40.1363 65.0481,95.5194 65.0481,156.458l0 118.506c0,13.2543 -10.7457,24 -24,24l-614.963 0c-13.2543,0 -24,-10.7457 -24,-24l0 -118.506c0,-60.939 24.913,-116.323 65.0493,-156.458 40.1351,-40.1351 95.5194,-65.0493 156.458,-65.0493zm18.5138 48l-18.5138 0c-47.6894,0 -91.0619,19.5284 -122.521,50.987 -31.4599,31.4587 -50.987,74.8323 -50.987,122.521l0 94.506 566.963 0 0 -94.506c0,-47.6882 -19.5272,-91.0619 -50.9859,-122.521 -31.4587,-31.4587 -74.8323,-50.987 -122.521,-50.987l-18.515 0c-12.9059,9.73938 -26.4744,17.6799 -40.5922,23.3788 -16.3878,6.61536 -33.4028,10.2473 -50.8678,10.2473 -17.465,0 -34.4799,-3.63189 -50.8678,-10.2473 -14.1177,-5.69882 -27.6874,-13.6394 -40.5922,-23.3788z"/>
  <path class="fil0" d="M1024 680.279c64.3642,0 122.926,15.7087 164.627,49.0548 38.9185,31.1221 62.6823,76.5296 62.6823,137.521 0,65.4945 -28.6937,153.021 -74.0989,218.894 -39.8634,57.8339 -93.189,100.067 -153.21,100.067 -60.0213,0 -113.347,-42.2327 -153.21,-100.067 -45.4052,-65.8725 -74.0989,-153.399 -74.0989,-218.894 0,-60.991 23.7638,-106.399 62.6823,-137.521 41.7012,-33.3461 100.263,-49.0548 164.627,-49.0548zm134.813 86.3682c-32.6162,-26.0811 -80.7001,-38.3681 -134.813,-38.3681 -54.1134,0 -102.197,12.287 -134.813,38.3681 -27.626,22.0914 -44.4957,55.1067 -44.4957,100.207 0,56.8654 25.3547,133.501 65.4745,191.707 31.5721,45.8044 71.6493,79.2532 113.835,79.2532 42.1855,0 82.2627,-33.4488 113.835,-79.2532 40.1197,-58.206 65.4745,-134.842 65.4745,-191.707 0,-45.1004 -16.8697,-78.1158 -44.4957,-100.207z"/>
  <path class="fil1" d="M1471.79 875.317l18.9295 0c6.44646,0 12.2988,2.54292 16.611,6.67914 6.98032,5.54528 14.2228,9.96733 21.626,12.9555 6.75827,2.72835 13.741,4.22599 20.8677,4.22599 7.1256,0 14.1095,-1.49764 20.8677,-4.22599 7.90749,-3.19134 15.6319,-8.01851 23.0492,-14.1036l15.1878 18.4689 -15.2232 -18.554c4.46693,-3.66614 9.86221,-5.44961 15.2232,-5.44607l0.0543308 0 18.8752 0c45.1642,0 86.2075,18.4606 115.947,48.1985 29.7378,29.739 48.1985,70.7823 48.1985,115.948l0 84.0886c0,13.2543 -10.7457,24 -24,24l-436.36 0c-13.2543,0 -24,-10.7457 -24,-24l0 -84.0886c0,-45.1654 18.4606,-86.2087 48.1996,-115.947 29.7378,-29.739 70.7823,-48.1996 115.947,-48.1996zm10.8744 48l-10.8744 0c-31.9134,0 -60.9473,13.0748 -82.0087,34.1374 -21.0626,21.0614 -34.1374,50.0941 -34.1374,82.0087l0 60.0886 388.36 0 0 -60.0886c0,-31.9146 -13.0748,-60.9473 -34.1362,-82.0099 -21.0626,-21.0614 -50.0953,-34.1362 -82.0087,-34.1362l-10.8744 0c-9.06851,6.63189 -18.5835,12.078 -28.4788,16.0725 -12.4536,5.02796 -25.3937,7.78819 -38.6811,7.78819 -13.2862,0 -26.2276,-2.76024 -38.6811,-7.78819 -9.89528,-3.99449 -19.4103,-9.44174 -28.4788,-16.0725z"/>
  <path class="fil1" d="M1549.82 493.507c47.1591,0 90.2351,11.6433 121.143,36.3603 29.2559,23.3941 47.1189,57.4146 47.1189,102.998 0,47.726 -20.8465,111.415 -53.8311,159.268 -29.4898,42.7843 -69.2516,74.028 -114.431,74.028 -45.1784,0 -84.9414,-31.2425 -114.432,-74.0268 -32.9835,-47.8548 -53.83,-111.543 -53.83,-159.269 0,-45.5835 17.863,-79.604 47.1189,-102.998 30.9083,-24.7169 73.9843,-36.3603 121.143,-36.3603zm91.33 73.6737c-21.8244,-17.452 -54.4217,-25.6736 -91.33,-25.6736 -36.9083,0 -69.5056,8.22166 -91.33,25.6736 -17.9634,14.3646 -28.9323,35.9918 -28.9323,65.6847 0,39.0981 17.5063,91.8957 45.2055,132.083 21.1984,30.7547 47.7118,53.2134 75.0568,53.2134 27.3449,0 53.8571,-22.4599 75.0556,-53.2146 27.7004,-40.1859 45.2067,-92.9835 45.2067,-132.082 0,-29.6929 -10.9689,-51.3201 -28.9323,-65.6847z"/>
  <path class="fil1" d="M420.144 875.317l18.9295 0c6.44646,0 12.2988,2.54292 16.611,6.67914 6.98032,5.54528 14.2228,9.96733 21.626,12.9555 6.75827,2.72835 13.7421,4.22599 20.8677,4.22599 7.12678,0 14.1095,-1.49764 20.8677,-4.22599 7.90749,-3.19134 15.6319,-8.01851 23.0492,-14.1036l15.1878 18.4689 -15.2232 -18.554c4.46693,-3.66614 9.86221,-5.44961 15.2232,-5.44607l0.0543308 0 18.8764 0c45.1642,0 86.2075,18.4606 115.947,48.1985 29.7378,29.739 48.1985,70.7823 48.1985,115.948l0 84.0886c0,13.2543 -10.7457,24 -24,24l-436.36 0c-13.2543,0 -24,-10.7457 -24,-24l0 -84.0886c0,-45.1654 18.4606,-86.2087 48.1985,-115.948 29.739,-29.7378 70.7823,-48.1985 115.947,-48.1985zm10.8744 48l-10.8744 0c-31.9134,0 -60.9461,13.0748 -82.0087,34.1362 -21.0614,21.0626 -34.1362,50.0953 -34.1362,82.0099l0 60.0886 388.36 0 0 -60.0886c0,-31.9146 -13.0748,-60.9473 -34.1362,-82.0099 -21.0626,-21.0614 -50.0953,-34.1362 -82.0087,-34.1362l-10.8756 0c-9.06851,6.63189 -18.5835,12.078 -28.4788,16.0725 -12.4536,5.02796 -25.3949,7.78819 -38.6811,7.78819 -13.2874,0 -26.2276,-2.76024 -38.6811,-7.78819 -9.89528,-3.99449 -19.4103,-9.44174 -28.4788,-16.0725z"/>
  <path class="fil1" d="M498.179 493.507c47.1591,0 90.2351,11.6433 121.143,36.3603 29.2559,23.3941 47.1189,57.4146 47.1189,102.998 0,47.726 -20.8465,111.415 -53.83,159.269 -29.491,42.7843 -69.254,74.0268 -114.432,74.0268 -45.1796,0 -84.9414,-31.2437 -114.431,-74.028 -32.9847,-47.8536 -53.8311,-111.542 -53.8311,-159.268 0,-45.5835 17.863,-79.604 47.1189,-102.998 30.9083,-24.7169 73.9843,-36.3603 121.143,-36.3603zm91.33 73.6737c-21.8244,-17.452 -54.4217,-25.6736 -91.33,-25.6736 -36.9083,0 -69.5056,8.22166 -91.33,25.6736 -17.9634,14.3646 -28.9323,35.9918 -28.9323,65.6847 0,39.0981 17.5063,91.8957 45.2067,132.082 21.1984,30.7547 47.7107,53.2146 75.0556,53.2146 27.3449,0 53.8583,-22.4587 75.0568,-53.2134 27.6992,-40.187 45.2055,-92.9847 45.2055,-132.083 0,-29.6929 -10.9689,-51.3201 -28.9323,-65.6847z"/>
 </g>
 <rect class="fil2" width="2048" height="2048"/>
</svg>
